<?xml version="1.0" encoding="UTF-8"?><svg id="Capa_1" xmlns="http://www.w3.org/2000/svg" viewBox="0 0 26.74 2.84"><path d="M1.36,2.7c-.35,0-.66-.13-.91-.38-.22-.22-.34-.49-.37-.79h.61c.02.14.09.26.19.36.13.13.29.2.48.2s.35-.07.48-.2c.1-.1.17-.22.19-.36h.61c-.02.3-.15.57-.37.79-.25.25-.56.38-.91.38M2.03,1.3c-.02-.14-.09-.26-.19-.36-.13-.13-.3-.2-.48-.2s-.35.07-.48.2c-.1.1-.17.23-.19.36H.08c.02-.3.15-.57.37-.79.25-.25.56-.38.91-.38s.66.13.91.38c.22.22.35.49.37.79h-.61Z" style="fill:#b27746; stroke-width:0px;"/><path d="M3.03.13h.6v2.57h-.6V.13ZM3.87,1.12h.98v.6h-.98v-.6ZM3.87.13h.98v.6h-.98V.13Z" style="fill:#b27746; stroke-width:0px;"/><path d="M5.24.13h.6v2.57h-.6V.13ZM6.08,1.12h.98v.6h-.98v-.6ZM6.08.13h.98v.6h-.98V.13Z" style="fill:#b27746; stroke-width:0px;"/><path d="M8.91,2.7l-.13-.23h-.85l.32-.6h.2l-.57-1.06.34-.64,1.36,2.54h-.69ZM6.88,2.7l.89-1.66.34.64-.55,1.02h-.69Z" style="fill:#b27746; stroke-width:0px;"/><path d="M10.74,2.1h.98v.6h-.98v-.6ZM9.89.13h.6v2.57h-.6V.13Z" style="fill:#b27746; stroke-width:0px;"/><path d="M13.28,2.1h.98v.6h-.98v-.6ZM12.44.13h.6v2.57h-.6V.13ZM13.28,1.12h.98v.6h-.98v-.6ZM13.28.13h.98v.6h-.98V.13Z" style="fill:#b27746; stroke-width:0px;"/><path d="M16.58,2.7l-.67-.85-.67.85h-.68l1.01-1.29-1.01-1.29h.68l1.02,1.3,1,1.27h-.68ZM16.04.82l.54-.69h.68l-.88,1.12-.34-.43Z" style="fill:#b27746; stroke-width:0px;"/><path d="M17.41.13h.6v2.57h-.6V.13ZM18.25,1.72v-.6h.28c.05,0,.1-.02.13-.06.04-.04.06-.08.06-.14,0-.05-.02-.1-.06-.13-.04-.04-.08-.06-.14-.06h-.28V.13h.28c.22,0,.41.08.56.23.15.15.23.34.23.56s-.08.41-.23.56c-.15.15-.34.23-.56.23h-.28Z" style="fill:#b27746; stroke-width:0px;"/><path d="M21,2.7c-.22,0-.41-.08-.56-.23-.15-.15-.23-.34-.23-.56h.6c0,.05.02.1.06.13.04.04.08.05.13.05s.1-.02.13-.05c.04-.04.06-.08.06-.14s-.02-.1-.06-.13c-.04-.04-.08-.06-.13-.06-.01,0-.03,0-.04,0l.31-.56c.11.04.21.1.29.19.15.15.23.34.23.56s-.08.41-.23.56-.34.23-.56.23M20.73,1.68c-.11-.04-.21-.1-.29-.19-.15-.15-.23-.34-.23-.56s.08-.4.23-.56c.15-.15.34-.23.56-.23s.41.08.56.23c.15.15.23.34.23.56h-.6c0-.05-.02-.09-.06-.13-.04-.04-.08-.06-.14-.06s-.1.02-.13.06c-.04.04-.06.08-.06.13,0,.05.02.1.06.14.04.04.08.06.13.06.01,0,.03,0,.04,0l-.31.56Z" style="fill:#b27746; stroke-width:0px;"/><path d="M25.09,2.7l-.13-.23h-.85l.32-.6h.2l-.57-1.06.34-.64,1.36,2.54h-.69ZM23.05,2.7l.89-1.66.34.64-.55,1.02h-.69Z" style="fill:#b27746; stroke-width:0px;"/><rect x="22.38" y="2.2" width=".5" height=".5" style="fill:#b27746; stroke-width:0px;"/><rect x="26.16" y="2.2" width=".5" height=".5" style="fill:#b27746; stroke-width:0px;"/></svg>